<svg width="78" height="75" viewBox="0 0 78 75" fill="none" xmlns="http://www.w3.org/2000/svg">
<path d="M40.2988 42.5078C38.9805 44.0866 37.1169 45.3154 34.708 46.1943C32.2992 47.057 29.6299 47.4883 26.7002 47.4883C23.624 47.4883 20.9222 46.821 18.5947 45.4863C16.2835 44.1354 14.4932 42.1823 13.2236 39.627C11.9704 37.0716 11.3275 34.0687 11.2949 30.6182V28.2012C11.2949 24.653 11.889 21.585 13.0771 18.9971C14.2816 16.3929 16.0068 14.4072 18.2529 13.04C20.5153 11.6566 23.1602 10.9648 26.1875 10.9648C30.403 10.9648 33.6989 11.974 36.0752 13.9922C38.4515 15.9941 39.8594 18.9157 40.2988 22.7568H33.1699C32.8444 20.7223 32.1201 19.2331 30.9971 18.2891C29.8903 17.3451 28.3604 16.873 26.4072 16.873C23.917 16.873 22.0208 17.8089 20.7188 19.6807C19.4167 21.5524 18.7575 24.3356 18.7412 28.0303V30.3008C18.7412 34.028 19.4492 36.8438 20.8652 38.748C22.2812 40.6523 24.3564 41.6045 27.0908 41.6045C29.8415 41.6045 31.8027 41.0186 32.9746 39.8467V33.7188H26.3096V28.3232H40.2988V42.5078Z" fill="#3700B3"/>
<path d="M60.373 49.0322C60.373 52.5316 59.7546 55.5996 58.5176 58.2363C57.2806 60.873 55.5065 62.9076 53.1953 64.3398C50.9004 65.7721 48.2637 66.4883 45.2852 66.4883C42.3392 66.4883 39.7106 65.7803 37.3994 64.3643C35.0882 62.9482 33.2979 60.93 32.0283 58.3096C30.7588 55.6729 30.1159 52.6455 30.0996 49.2275V47.4697C30.0996 43.9704 30.7262 40.8942 31.9795 38.2412C33.249 35.5719 35.0312 33.5293 37.3262 32.1133C39.6374 30.681 42.2741 29.9648 45.2363 29.9648C48.1986 29.9648 50.8271 30.681 53.1221 32.1133C55.4333 33.5293 57.2155 35.5719 58.4688 38.2412C59.7383 40.8942 60.373 43.9622 60.373 47.4453V49.0322ZM52.9512 47.4209C52.9512 43.6937 52.2839 40.8617 50.9492 38.9248C49.6146 36.988 47.7103 36.0195 45.2363 36.0195C42.7786 36.0195 40.8825 36.9798 39.5479 38.9004C38.2132 40.8047 37.5378 43.6042 37.5215 47.2988V49.0322C37.5215 52.6618 38.1888 55.4775 39.5234 57.4795C40.8581 59.4814 42.7786 60.4824 45.2852 60.4824C47.7428 60.4824 49.6309 59.5221 50.9492 57.6016C52.2676 55.6647 52.9349 52.849 52.9512 49.1543V47.4209Z" fill="#3700B3"/>
</svg>
